<svg width="22" height="22" viewBox="0 0 22 22" fill="none" xmlns="http://www.w3.org/2000/svg">
<path d="M12.7727 9.91379C12.5967 9.91379 12.4211 9.84676 12.2867 9.71235C12.0182 9.44388 12.0182 9.00869 12.2867 8.74022L19.4504 1.57647C19.7185 1.308 20.1541 1.308 20.4225 1.57647C20.691 1.84494 20.691 2.28013 20.4225 2.5486L13.2588 9.71235C13.1247 9.84676 12.9484 9.91379 12.7727 9.91379Z" fill="black"/>
<path d="M19.9365 2.75H14.7802C14.4007 2.75 14.0927 2.442 14.0927 2.0625C14.0927 1.683 14.4007 1.375 14.7802 1.375H19.9365C20.316 1.375 20.624 1.683 20.624 2.0625C20.624 2.442 20.3163 2.75 19.9365 2.75Z" fill="black"/>
<path d="M19.9365 7.90625C19.557 7.90625 19.249 7.59825 19.249 7.21875V2.0625C19.249 1.683 19.557 1.375 19.9365 1.375C20.316 1.375 20.624 1.683 20.624 2.0625V7.21875C20.624 7.59825 20.3163 7.90625 19.9365 7.90625Z" fill="black"/>
<path d="M13.2172 17.03C13.179 17.03 13.1402 17.0269 13.1013 17.0204C8.976 16.3202 5.71725 13.081 4.99228 8.96015C4.92662 8.58615 5.17619 8.22968 5.55019 8.16403C5.92384 8.0994 6.28066 8.34793 6.34631 8.72193C6.97091 12.2715 9.77763 15.0617 13.3313 15.665C13.7057 15.7286 13.9576 16.0837 13.894 16.458C13.837 16.7932 13.5462 17.03 13.2172 17.03Z" fill="black"/>
<path d="M5.66844 9.52841C5.32263 9.52841 5.02494 9.2682 4.98609 8.91654C4.94416 8.5391 5.21641 8.19948 5.59384 8.15754C6.31778 8.07779 6.96575 7.66873 7.37172 7.03623C7.77803 6.40304 7.87978 5.64232 7.65016 4.94932C7.40266 4.20166 6.81381 3.63654 6.03419 3.39867C5.25353 3.16079 4.44778 3.30173 3.82319 3.78607C3.52275 4.01845 3.091 3.96379 2.85863 3.66404C2.62591 3.36395 2.68056 2.93185 2.98066 2.69913C3.94831 1.94873 5.23978 1.71807 6.43534 2.08348C7.62988 2.44785 8.57209 3.35742 8.95606 4.51757C9.31631 5.60588 9.16059 6.79491 8.52947 7.77873C7.89869 8.76185 6.88394 9.39813 5.74578 9.52429C5.71931 9.52704 5.69353 9.52841 5.66844 9.52841Z" fill="black"/>
<path d="M2.07178 8.36243C1.70053 8.36243 1.39494 8.06681 1.38462 7.69315C1.35059 6.40787 1.287 4.01537 2.97928 2.69984C3.27937 2.46712 3.71112 2.52109 3.94419 2.82084C4.17725 3.12059 4.12328 3.55268 3.82319 3.78575C2.76822 4.60593 2.72078 6.214 2.75928 7.6574C2.76925 8.0369 2.46984 8.35247 2.09034 8.36278C2.08416 8.36243 2.07797 8.36243 2.07178 8.36243Z" fill="black"/>
<path d="M18.8275 19.2638C18.6818 19.2638 18.5347 19.2177 18.4102 19.1222C18.1087 18.8912 18.0517 18.4598 18.2823 18.1583C18.7265 17.5784 18.8787 16.8263 18.7007 16.0944C18.5223 15.3616 18.0407 14.7624 17.3786 14.4506C16.6677 14.1148 15.8534 14.1522 15.1449 14.5517C14.4358 14.9511 13.982 15.63 13.8999 16.4141C13.8607 16.7916 13.5248 17.0628 13.1447 17.0263C12.7669 16.9868 12.4929 16.6486 12.5324 16.2711C12.6593 15.0567 13.3836 13.9659 14.4698 13.3537C15.5554 12.7425 16.8616 12.6872 17.9647 13.2066C19.0046 13.6968 19.7598 14.6311 20.0368 15.7699C20.3136 16.9077 20.0719 18.083 19.3741 18.9943C19.2387 19.1713 19.0345 19.2638 18.8275 19.2638Z" fill="black"/>
<path d="M16.5639 20.4961C16.2226 20.4961 15.9266 20.2421 15.8826 19.8946C15.8352 19.5178 16.1023 19.1737 16.479 19.1266C17.1923 19.0369 17.8396 18.6846 18.3019 18.1339C18.5463 17.8431 18.9798 17.8056 19.2706 18.05C19.5614 18.2944 19.5989 18.7282 19.3548 19.0187C18.6691 19.8348 17.7086 20.3576 16.6506 20.4906C16.6213 20.4944 16.5925 20.4961 16.5639 20.4961Z" fill="black"/>
<path d="M14.751 20.625C14.3357 20.625 13.9202 20.6057 13.5063 20.5676C10.2902 20.2685 7.28853 18.8082 5.05416 16.4556C2.79984 14.083 1.49669 10.9728 1.38497 7.69858C1.37191 7.31908 1.66925 7.00111 2.04875 6.98805C2.42137 6.97189 2.74622 7.27199 2.75928 7.65183C2.85966 10.5899 4.02875 13.3801 6.05137 15.5089C8.05647 17.6202 10.7494 18.9306 13.6338 19.1987C14.5777 19.2861 15.531 19.2623 16.4673 19.1283C16.8444 19.0764 17.1916 19.3356 17.2456 19.7109C17.2992 20.087 17.0383 20.4352 16.6626 20.4892C16.0297 20.5796 15.3904 20.625 14.751 20.625Z" fill="black"/>
</svg>
