<svg width="24" height="24" viewBox="0 0 24 24" fill="none" xmlns="http://www.w3.org/2000/svg">
<path d="M23.5238 18.4656L17.1919 13.1913L23.7943 5.42803C24.1096 5.0571 24.0565 4.50761 23.6758 4.2005C23.2951 3.89327 22.7307 3.94488 22.4153 4.31581L15.2509 12.7399C15.2146 12.7824 15.1838 12.8275 15.1573 12.8743V4.87192C15.1573 4.39044 14.7566 4.00009 14.2621 4.00009H13.1257C12.6312 4.00009 12.2305 4.39044 12.2305 4.87192C12.2305 5.3534 12.6312 5.74375 13.1257 5.74375H13.3669V16.5838L3.60237 4.3372C3.29907 3.95685 2.73664 3.88804 2.34621 4.18329C1.95565 4.47855 1.88499 5.02629 2.18817 5.40653L13.5549 19.6628C13.7277 19.8797 13.9908 20 14.2621 20C14.359 20 14.457 19.9847 14.5523 19.9529C14.9141 19.8321 15.1572 19.5007 15.1572 19.1282V13.717C15.2077 13.8062 15.2743 13.8886 15.3585 13.9587L22.36 19.7908C22.5287 19.9313 22.7355 20 22.9414 20C23.194 20 23.4451 19.8964 23.6221 19.6949C23.9436 19.3289 23.8995 18.7785 23.5238 18.4656Z" fill="black"/>
</svg>
