<svg width="26" height="26" viewBox="0 0 26 26" fill="none" xmlns="http://www.w3.org/2000/svg">
<g clip-path="url(#clip0_85_8015)">
<path d="M10.7672 8.51068C10.2288 8.18893 9.53875 8.57785 9.53875 9.20835V16.7917C9.53875 17.4254 10.2299 17.8089 10.7672 17.4904L17.1253 13.7042C17.654 13.3889 17.6529 12.6241 17.1264 12.3078L10.7672 8.51068ZM11.1637 15.3628V10.6394L15.1233 13.0043L11.1637 15.3628Z" fill="black"/>
<path d="M21.5627 3.54362C16.5219 2.79503 9.48025 2.79503 4.43733 3.54362C2.42017 3.84262 0.830917 5.42645 0.48425 7.48261C-0.161417 11.2992 -0.161417 14.7019 0.48425 18.5174C0.830917 20.5747 2.42017 22.1574 4.43733 22.4564C6.96367 22.8313 9.98833 23.0187 13.0119 23.0187C16.0301 23.0187 19.0472 22.8324 21.5638 22.4575C23.5788 22.1585 25.1669 20.5758 25.5158 18.5185C26.1614 14.7019 26.1614 11.2981 25.5158 7.48153C25.1691 5.42645 23.5798 3.84262 21.5627 3.54362ZM23.9135 18.2477C23.6828 19.6084 22.6428 20.6549 21.3243 20.8499C16.4298 21.5768 9.58317 21.5768 4.67567 20.8488C3.35617 20.6527 2.31508 19.6073 2.08542 18.2466C1.46358 14.5698 1.46358 11.4314 2.08542 7.75237C2.31617 6.3917 3.35617 5.34737 4.67675 5.1502C7.12725 4.78728 10.0642 4.60528 12.9989 4.60528C15.9358 4.60528 18.8728 4.78728 21.3233 5.1502C22.6428 5.34628 23.6838 6.3917 23.9135 7.75237C24.5353 11.4314 24.5353 14.5698 23.9135 18.2477Z" fill="black"/>
</g>
<defs>
<clipPath id="clip0_85_8015">
<rect width="26" height="26" fill="white"/>
</clipPath>
</defs>
</svg>
