<svg width="8" height="8" viewBox="0 0 8 8" fill="none" xmlns="http://www.w3.org/2000/svg">
<path d="M7.89353 3.73027L5.34805 1.10527C5.27947 1.03696 5.18761 0.99916 5.09227 1.00001C4.99692 1.00087 4.90572 1.04031 4.83829 1.10984C4.77087 1.17936 4.73263 1.27342 4.7318 1.37174C4.73097 1.47007 4.76763 1.56479 4.83387 1.63552L6.75861 3.62039H0.36364C0.267197 3.62039 0.174703 3.6599 0.106508 3.73023C0.0383119 3.80055 0 3.89594 0 3.99539C0 4.09485 0.0383119 4.19023 0.106508 4.26056C0.174703 4.33088 0.267197 4.37039 0.36364 4.37039H6.75861L4.83387 6.35527C4.79913 6.38986 4.77143 6.43124 4.75237 6.47699C4.73331 6.52274 4.72328 6.57195 4.72286 6.62174C4.72244 6.67153 4.73165 6.72091 4.74993 6.767C4.76821 6.81309 4.79521 6.85496 4.82936 6.89016C4.8635 6.92537 4.9041 6.95322 4.94879 6.97208C4.99348 6.99093 5.04137 7.00042 5.08965 6.99999C5.13793 6.99955 5.18565 6.98921 5.23002 6.96955C5.27438 6.9499 5.31451 6.92133 5.34805 6.88552L7.89353 4.26052C7.9617 4.19019 8 4.09483 8 3.99539C8 3.89596 7.9617 3.80059 7.89353 3.73027Z" fill="black"/>
</svg>
