<svg width="24" height="24" viewBox="0 0 24 24" fill="none" xmlns="http://www.w3.org/2000/svg">
<path d="M0.450576 12.1644L11.2633 22.9772C11.512 23.2259 11.9157 23.2259 12.1644 22.9772C12.4131 22.7285 12.4131 22.3248 12.1644 22.0761L2.43945 12.3512L22.5266 12.351C22.8785 12.351 23.1637 12.0658 23.1637 11.7139C23.1637 11.5378 23.0925 11.3787 22.9772 11.2634C22.8618 11.148 22.7026 11.0766 22.5266 11.0769L2.43922 11.0769L12.1644 1.35169C12.4131 1.10299 12.4131 0.699318 12.1644 0.450624C11.9157 0.201931 11.512 0.201931 11.2633 0.450624L0.450576 11.2634C0.201883 11.5121 0.201883 11.9158 0.450576 12.1644Z" fill="white"/>
</svg>
