<svg width="24" height="24" viewBox="0 0 24 24" fill="none" xmlns="http://www.w3.org/2000/svg">
<path d="M22.9772 11.2633L12.1644 0.450532C11.9157 0.201838 11.512 0.201838 11.2633 0.450532C11.0146 0.699225 11.0146 1.1029 11.2633 1.35159L20.9883 11.0765L0.901109 11.0768C0.549244 11.0768 0.264057 11.362 0.264057 11.7138C0.264057 11.89 0.335242 12.049 0.450578 12.1644C0.565914 12.2797 0.725175 12.3511 0.901109 12.3509L20.9885 12.3509L11.2633 22.076C11.0146 22.3247 11.0146 22.7284 11.2633 22.9771C11.512 23.2258 11.9157 23.2258 12.1644 22.9771L22.9772 12.1644C23.2258 11.9157 23.2258 11.512 22.9772 11.2633Z" fill="white"/>
</svg>
