<svg width="26" height="26" viewBox="0 0 26 26" fill="none" xmlns="http://www.w3.org/2000/svg">
<path d="M24 23.3846L24 8.61538C24 8.27569 23.7243 8 23.3846 8C23.0449 8 22.7692 8.27569 22.7692 8.61538L22.7692 21.8988L9.05046 8.18031C8.81015 7.94 8.42062 7.94 8.18031 8.18031C8.06 8.30061 8 8.45785 8 8.61538C8 8.77292 8.06 8.93046 8.18031 9.05046L21.8991 22.7692L8.61538 22.7692C8.27569 22.7692 8 23.0449 8 23.3846C8 23.7243 8.27569 24 8.61538 24L23.3846 24C23.7243 24 24 23.7243 24 23.3846Z" fill="white"/>
</svg>
