<svg width="157" height="151" viewBox="0 0 157 151" fill="none" xmlns="http://www.w3.org/2000/svg">
<path d="M147.242 146.498C141.498 152.23 133.714 155.449 125.599 155.449C117.484 155.449 109.7 152.23 103.956 146.498L45 87.5L52.5 80L111.509 138.964C113.361 140.815 115.559 142.284 117.978 143.286C120.396 144.288 122.989 144.804 125.607 144.804C128.226 144.804 130.818 144.288 133.237 143.286C135.656 142.284 137.854 140.815 139.705 138.964C141.557 137.113 143.025 134.915 144.027 132.496C145.029 130.077 145.545 127.484 145.545 124.866C145.545 122.248 145.029 119.655 144.027 117.236C143.025 114.817 141.557 112.619 139.705 110.768L116.5 87.5L124 80L147.242 103.223C152.969 108.967 156.185 116.749 156.185 124.86C156.185 132.972 152.969 140.753 147.242 146.498Z" fill="white"/>
<path d="M52.0969 115.289L59.6422 122.835L53.4139 129.049C47.6349 134.59 39.915 137.645 31.9094 137.561C23.9039 137.477 16.2499 134.26 10.5887 128.599C4.92739 122.938 1.70944 115.284 1.62476 107.279C1.54008 99.273 4.59541 91.5529 10.1357 85.7735L52.0969 43.8094L59.6422 51.3548L17.6782 93.3188C13.9392 97.0578 11.8386 102.129 11.8386 107.417C11.8386 112.705 13.9392 117.776 17.6782 121.515C21.4172 125.254 26.4884 127.354 31.7762 127.354C37.064 127.354 42.1352 125.254 45.8742 121.515L52.0969 115.289Z" fill="white"/>
<path d="M129.794 52.6691L87.8383 94.6416L80.293 87.0962L122.257 45.1322C125.996 41.3932 128.097 36.3219 128.098 31.0338C128.098 25.7458 125.997 20.6742 122.258 16.9348C118.519 13.1954 113.448 11.0945 108.16 11.0943C102.872 11.094 97.8004 13.1944 94.061 16.9334L87.8383 23.159L80.293 15.6024L86.5157 9.37968C92.2776 3.74429 100.03 0.608913 108.089 0.65417C116.149 0.699427 123.865 3.92166 129.563 9.62141C135.262 15.3212 138.482 23.0384 138.525 31.0979C138.568 39.1574 135.431 46.9087 129.794 52.6691Z" fill="white"/>
<path d="M97.1276 53.0987L89.5823 60.644L45.8744 16.9334C44.0229 15.082 41.8248 13.6134 39.4057 12.6115C36.9866 11.6097 34.3938 11.0941 31.7755 11.0942C29.1571 11.0943 26.5644 11.6102 24.1454 12.6123C21.7264 13.6144 19.5284 15.0832 17.6771 16.9348C13.938 20.6741 11.8376 25.7457 11.8379 31.0337C11.8382 36.3218 13.9391 41.3931 17.6785 45.1321L23.9012 51.3549L16.3474 58.8974L10.136 52.669C7.20269 49.8479 4.86147 46.4702 3.24926 42.7334C1.63705 38.9967 0.786231 34.9759 0.746571 30.9064C0.706911 26.8369 1.47921 22.8003 3.01828 19.0328C4.55736 15.2654 6.8323 11.8426 9.71003 8.96491C12.5878 6.08719 16.0105 3.81224 19.7779 2.27317C23.5454 0.734092 27.582 -0.0382063 31.6515 0.00145354C35.721 0.0411134 39.7418 0.891935 43.4786 2.50414C47.2153 4.11635 50.5931 6.45757 53.4142 9.39083L97.1276 53.0987Z" fill="white"/>
</svg>
