<svg width="43" height="43" viewBox="0 0 43 43" fill="none" xmlns="http://www.w3.org/2000/svg">
<path d="M-1.40969e-06 10.75L-4.69897e-07 32.25C-3.45273e-07 35.1011 1.13259 37.8354 3.1486 39.8514C5.16462 41.8674 7.89892 43 10.75 43L32.25 43C35.1011 43 37.8354 41.8674 39.8514 39.8514C41.8674 37.8354 43 35.1011 43 32.25L43 10.75C43 7.89892 41.8674 5.16462 39.8514 3.1486C37.8354 1.13258 35.1011 -1.53432e-06 32.25 -1.40969e-06L10.75 -4.69897e-07C7.89892 -3.45273e-07 5.16462 1.13259 3.1486 3.1486C1.13258 5.16462 -1.53432e-06 7.89892 -1.40969e-06 10.75ZM32.25 2.01562C34.5657 2.01829 36.7858 2.93937 38.4232 4.57681C40.0606 6.21424 40.9817 8.43432 40.9844 10.75L40.9844 32.25C40.9817 34.5657 40.0606 36.7858 38.4232 38.4232C36.7858 40.0606 34.5657 40.9817 32.25 40.9844L10.75 40.9844C8.43432 40.9817 6.21425 40.0606 4.57681 38.4232C2.93937 36.7858 2.01829 34.5657 2.01562 32.25L2.01562 10.75C2.01829 8.43432 2.93937 6.21425 4.57681 4.57681C6.21424 2.93937 8.43432 2.01829 10.75 2.01562L32.25 2.01562Z" fill="white"/>
<path d="M27.9628 13.8322L13.8324 27.9626L13.8324 22.373L12.1284 22.373L12.1284 30.8718L20.6272 30.8718L20.6272 29.1678L15.0371 29.1678L29.168 15.0369L29.168 20.627L30.872 20.627L30.872 12.1282L22.3732 12.1282L22.3732 13.8322L27.9628 13.8322Z" fill="white"/>
</svg>
