<svg width="151" height="149" viewBox="0 0 151 149" fill="none" xmlns="http://www.w3.org/2000/svg">
<path d="M75.6055 45.4414V93.4766" stroke="white" stroke-width="8.78906" stroke-miterlimit="10"/>
<path d="M75.6055 111.055C80.4595 111.055 84.3945 107.12 84.3945 102.266C84.3945 97.4116 80.4595 93.4766 75.6055 93.4766C70.7514 93.4766 66.8164 97.4116 66.8164 102.266C66.8164 107.12 70.7514 111.055 75.6055 111.055Z" stroke="white" stroke-width="8.78906" stroke-miterlimit="10"/>
<path d="M48.9453 128.633H102.266" stroke="white" stroke-width="8.78906" stroke-miterlimit="10"/>
<path d="M48.9455 128.633L37.2095 111.055L75.6057 44.5508L114.002 111.055L102.266 128.633V146.211H48.9455V128.633Z" stroke="white" stroke-width="8.78906" stroke-miterlimit="10"/>
<path d="M66.8164 13.7891H9.39453" stroke="white" stroke-width="8.78906" stroke-miterlimit="10"/>
<path d="M84.3945 13.7891H141.816" stroke="white" stroke-width="8.78906" stroke-miterlimit="10"/>
<path d="M84.3945 5H66.8164V22.5781H84.3945V5Z" stroke="white" stroke-width="8.78906" stroke-miterlimit="10"/>
<path d="M146.211 66.8164H128.633V84.3945H146.211V66.8164Z" stroke="white" stroke-width="8.78906" stroke-miterlimit="10"/>
<path d="M22.5781 66.8164H5V84.3945H22.5781V66.8164Z" stroke="white" stroke-width="8.78906" stroke-miterlimit="10"/>
<path d="M66.8165 14.4141C39.711 18.2728 18.2728 39.711 14.4141 66.8165" stroke="white" stroke-width="8.78906" stroke-miterlimit="10"/>
<path d="M136.797 66.8165C132.938 39.711 111.5 18.2728 84.3945 14.4141" stroke="white" stroke-width="8.78906" stroke-miterlimit="10"/>
</svg>
