<svg width="25" height="25" viewBox="0 0 25 25" fill="none" xmlns="http://www.w3.org/2000/svg">
<g clip-path="url(#clip0_91_11043)">
<path d="M10.3531 8.18324C9.83542 7.87387 9.17188 8.24782 9.17188 8.85407V16.1457C9.17188 16.7551 9.83646 17.1239 10.3531 16.8176L16.4667 13.177C16.975 12.8739 16.974 12.1385 16.4677 11.8343L10.3531 8.18324ZM10.7344 14.7718V10.2301L14.5417 12.5041L10.7344 14.7718Z" fill="white"/>
<path d="M20.7333 3.40728C15.8865 2.68748 9.11563 2.68748 4.26667 3.40728C2.32708 3.69478 0.798958 5.21769 0.465625 7.19478C-0.155208 10.8646 -0.155208 14.1364 0.465625 17.8052C0.798958 19.7833 2.32708 21.3052 4.26667 21.5927C6.69583 21.9531 9.60417 22.1333 12.5115 22.1333C15.4135 22.1333 18.3146 21.9541 20.7344 21.5937C22.6719 21.3062 24.199 19.7844 24.5344 17.8062C25.1552 14.1364 25.1552 10.8635 24.5344 7.19373C24.201 5.21769 22.6729 3.69478 20.7333 3.40728ZM22.9937 17.5458C22.7719 18.8541 21.7719 19.8604 20.5042 20.0479C15.7979 20.7469 9.21458 20.7469 4.49583 20.0469C3.22708 19.8583 2.22604 18.8531 2.00521 17.5448C1.40729 14.0094 1.40729 10.9917 2.00521 7.45415C2.22708 6.14582 3.22708 5.14165 4.49687 4.95207C6.85312 4.60311 9.67708 4.42811 12.499 4.42811C15.3229 4.42811 18.1469 4.60311 20.5031 4.95207C21.7719 5.14061 22.7729 6.14582 22.9937 7.45415C23.5917 10.9917 23.5917 14.0094 22.9937 17.5458Z" fill="white"/>
</g>
<defs>
<clipPath id="clip0_91_11043">
<rect width="25" height="25" fill="white"/>
</clipPath>
</defs>
</svg>
