<svg width="22" height="20" viewBox="0 0 22 20" fill="none" xmlns="http://www.w3.org/2000/svg">
<g clip-path="url(#clip0_91_11041)">
<path d="M21.5238 16.0355L15.1919 11.1121L21.7943 3.86526C22.1096 3.51901 22.0565 3.00607 21.6759 2.71939C21.2951 2.43259 20.7308 2.48077 20.4153 2.82703L13.2509 10.6907C13.2146 10.7304 13.1838 10.7725 13.1573 10.8162V3.34615C13.1573 2.89669 12.7566 2.53231 12.2621 2.53231H11.1257C10.6312 2.53231 10.2305 2.89669 10.2305 3.34615C10.2305 3.7956 10.6312 4.15998 11.1257 4.15998H11.3669V14.279L1.60237 2.847C1.29907 2.49195 0.736639 2.42771 0.346206 2.70333C-0.0443472 2.97895 -0.11501 3.49025 0.18817 3.84519L11.5549 17.1531C11.7277 17.3556 11.9908 17.4679 12.2621 17.4679C12.3591 17.4679 12.4571 17.4536 12.5523 17.4239C12.9141 17.3112 13.1572 17.0018 13.1572 16.6541V11.6029C13.2077 11.6861 13.2743 11.763 13.3585 11.8285L20.36 17.2726C20.5287 17.4038 20.7355 17.4679 20.9414 17.4679C21.194 17.4679 21.4451 17.3712 21.6222 17.183C21.9436 16.8415 21.8996 16.3276 21.5238 16.0355Z" fill="white"/>
</g>
<defs>
<clipPath id="clip0_91_11041">
<rect width="22" height="20" fill="white"/>
</clipPath>
</defs>
</svg>
