<svg width="20" height="21" viewBox="0 0 20 21" fill="none" xmlns="http://www.w3.org/2000/svg">
<g clip-path="url(#clip0_91_11046)">
<path d="M14.1904 0H5.80969C2.60621 0 0 2.73652 0 6.10017V14.8998C0 18.2635 2.60621 21 5.80969 21H14.1903C17.3938 21 20 18.2635 20 14.8999V6.10017C20 2.73652 17.3938 0 14.1904 0ZM18.4375 14.8998C18.4375 17.3588 16.5322 19.3594 14.1904 19.3594H5.80969C3.46777 19.3594 1.5625 17.3588 1.5625 14.8999V6.10017C1.5625 3.64116 3.46777 1.64062 5.80969 1.64062H14.1903C16.5322 1.64062 18.4375 3.64116 18.4375 6.10017V14.8998Z" fill="#00B2A8"/>
<path d="M10 4.83984C7.02758 4.83984 4.60938 7.37896 4.60938 10.5C4.60938 13.621 7.02758 16.1602 10 16.1602C12.9724 16.1602 15.3906 13.621 15.3906 10.5C15.3906 7.37896 12.9724 4.83984 10 4.83984ZM10 14.5195C7.88918 14.5195 6.17188 12.7164 6.17188 10.5C6.17188 8.28364 7.88918 6.48047 10 6.48047C12.1108 6.48047 13.8281 8.28364 13.8281 10.5C13.8281 12.7164 12.1108 14.5195 10 14.5195Z" fill="#00B2A8"/>
<path d="M15.4688 5.57812C15.9002 5.57812 16.25 5.21086 16.25 4.75781C16.25 4.30477 15.9002 3.9375 15.4688 3.9375C15.0373 3.9375 14.6875 4.30477 14.6875 4.75781C14.6875 5.21086 15.0373 5.57812 15.4688 5.57812Z" fill="#00B2A8"/>
</g>
<defs>
<clipPath id="clip0_91_11046">
<rect width="20" height="21" fill="white"/>
</clipPath>
</defs>
</svg>
