<svg width="18" height="18" viewBox="0 0 18 18" fill="none" xmlns="http://www.w3.org/2000/svg">
<g clip-path="url(#clip0_39_14673)">
<path d="M0.878582 17.9999C0.704727 17.9999 0.534768 17.9484 0.390202 17.8518C0.245637 17.7552 0.13296 17.618 0.066424 17.4573C-0.000111787 17.2967 -0.0175173 17.12 0.016409 16.9495C0.0503354 16.7789 0.134069 16.6223 0.25702 16.4994L16.4992 0.257215C16.6641 0.0923669 16.8876 -0.000244141 17.1208 -0.000244141C17.3539 -0.000244141 17.5775 0.0923669 17.7423 0.257215C17.9072 0.422064 17.9998 0.645647 17.9998 0.878778C17.9998 1.11191 17.9072 1.33549 17.7423 1.50034L1.50014 17.7425C1.4186 17.8242 1.3217 17.889 1.21504 17.9332C1.10837 17.9774 0.99403 18 0.878582 17.9999Z" fill="white"/>
<path d="M17.1212 17.9999C17.0058 18 16.8914 17.9774 16.7848 17.9332C16.6781 17.889 16.5812 17.8242 16.4996 17.7425L0.25746 1.50034C0.092611 1.33549 0 1.11191 0 0.878778C0 0.645647 0.092611 0.422064 0.25746 0.257215C0.422308 0.0923669 0.645891 -0.000244141 0.879022 -0.000244141C1.11215 -0.000244141 1.33574 0.0923669 1.50058 0.257215L17.7428 16.4994C17.8657 16.6223 17.9495 16.7789 17.9834 16.9495C18.0173 17.12 17.9999 17.2967 17.9334 17.4573C17.8668 17.618 17.7542 17.7552 17.6096 17.8518C17.465 17.9484 17.2951 17.9999 17.1212 17.9999Z" fill="white"/>
</g>
<defs>
<clipPath id="clip0_39_14673">
<rect width="18" height="18" fill="white"/>
</clipPath>
</defs>
</svg>
