<svg width="24" height="24" viewBox="0 0 24 24" fill="none" xmlns="http://www.w3.org/2000/svg">
<path d="M23.4869 11.2633L12.6742 0.450532C12.4255 0.201838 12.0218 0.201838 11.7731 0.450532C11.5244 0.699225 11.5244 1.1029 11.7731 1.35159L21.4981 11.0765L1.41087 11.0768C1.05901 11.0768 0.773823 11.362 0.773823 11.7138C0.773823 11.89 0.845007 12.049 0.960343 12.1644C1.07568 12.2797 1.23494 12.3511 1.41087 12.3509L21.4983 12.3509L11.7731 22.076C11.5244 22.3247 11.5244 22.7284 11.7731 22.9771C12.0218 23.2258 12.4255 23.2258 12.6742 22.9771L23.4869 12.1644C23.7356 11.9157 23.7356 11.512 23.4869 11.2633Z" fill="#00B2A8"/>
</svg>
