<svg width="24" height="24" viewBox="0 0 24 24" fill="none" xmlns="http://www.w3.org/2000/svg">
<path d="M0.450576 12.7367L11.2633 23.5495C11.512 23.7982 11.9157 23.7982 12.1644 23.5495C12.4131 23.3008 12.4131 22.8971 12.1644 22.6484L2.43945 12.9235L22.5266 12.9232C22.8785 12.9232 23.1637 12.638 23.1637 12.2862C23.1637 12.11 23.0925 11.951 22.9772 11.8356C22.8618 11.7203 22.7026 11.6489 22.5266 11.6491L2.43922 11.6491L12.1644 1.92395C12.4131 1.67526 12.4131 1.27158 12.1644 1.02289C11.9157 0.774196 11.512 0.774196 11.2633 1.02289L0.450576 11.8356C0.201883 12.0843 0.201883 12.488 0.450576 12.7367Z" fill="black"/>
</svg>
