<svg width="10" height="12" viewBox="0 0 10 12" fill="none" xmlns="http://www.w3.org/2000/svg">
<path d="M5.38575 11.8403L9.13575 8.02208C9.23334 7.9192 9.28733 7.78142 9.28611 7.6384C9.28489 7.49538 9.22855 7.35858 9.12923 7.25744C9.0299 7.15631 8.89554 7.09894 8.75507 7.0977C8.61461 7.09646 8.47929 7.15144 8.37825 7.2508L5.54272 10.1379L5.54272 0.54546C5.54272 0.400795 5.48627 0.262055 5.38581 0.159761C5.28534 0.0574677 5.14908 -1.80836e-07 5.007 -1.87047e-07C4.86492 -1.93257e-07 4.72866 0.0574677 4.62819 0.159761C4.52773 0.262055 4.47129 0.400795 4.47129 0.54546L4.47129 10.1379L1.63575 7.2508C1.58633 7.1987 1.52722 7.15715 1.46186 7.12856C1.3965 7.09997 1.3262 7.08492 1.25507 7.0843C1.18394 7.08367 1.1134 7.09747 1.04756 7.12489C0.981725 7.15232 0.921911 7.19282 0.871611 7.24404C0.821312 7.29525 0.781533 7.35615 0.754596 7.42319C0.727661 7.49022 0.714106 7.56205 0.714724 7.63447C0.715342 7.7069 0.730121 7.77848 0.758197 7.84502C0.786274 7.91157 0.827085 7.97176 0.878251 8.02208L4.62825 11.8403C4.72871 11.9426 4.86495 12 5.007 12C5.14905 12 5.28529 11.9426 5.38575 11.8403Z" fill="black"/>
</svg>
