<svg width="43" height="43" viewBox="0 0 43 43" fill="none" xmlns="http://www.w3.org/2000/svg">
<path d="M-1.40969e-06 10.75L-4.69897e-07 32.25C-3.45273e-07 35.1011 1.13259 37.8354 3.1486 39.8514C5.16462 41.8674 7.89892 43 10.75 43L32.25 43C35.1011 43 37.8354 41.8674 39.8514 39.8514C41.8674 37.8354 43 35.1011 43 32.25L43 10.75C43 7.89892 41.8674 5.16462 39.8514 3.1486C37.8354 1.13259 35.1011 -1.53432e-06 32.25 -1.40969e-06L10.75 -4.69897e-07C7.89892 -3.45273e-07 5.16462 1.13259 3.1486 3.1486C1.13258 5.16462 -1.53432e-06 7.89892 -1.40969e-06 10.75ZM32.25 2.01562C34.5657 2.01829 36.7858 2.93938 38.4232 4.57681C40.0606 6.21424 40.9817 8.43432 40.9844 10.75L40.9844 32.25C40.9817 34.5657 40.0606 36.7858 38.4232 38.4232C36.7858 40.0606 34.5657 40.9817 32.25 40.9844L10.75 40.9844C8.43432 40.9817 6.21425 40.0606 4.57681 38.4232C2.93937 36.7858 2.01829 34.5657 2.01562 32.25L2.01562 10.75C2.01829 8.43432 2.93937 6.21424 4.57681 4.57681C6.21424 2.93938 8.43432 2.01829 10.75 2.01562L32.25 2.01562Z" fill="white"/>
<path d="M22.7191 32.1025L29.7193 24.9749C29.9014 24.7829 30.0022 24.5257 30 24.2587C29.9977 23.9918 29.8925 23.7364 29.7071 23.5476C29.5217 23.3588 29.2709 23.2517 29.0087 23.2494C28.7465 23.2471 28.4939 23.3497 28.3052 23.5352L23.0121 28.9246L23.0121 11.0182C23.0121 10.7482 22.9067 10.4892 22.7192 10.2982C22.5317 10.1073 22.2773 10 22.0121 10C21.7469 10 21.4925 10.1073 21.305 10.2982C21.1174 10.4892 21.0121 10.7482 21.0121 11.0182L21.0121 28.9246L15.7189 23.5352C15.6267 23.4379 15.5163 23.3604 15.3943 23.307C15.2723 23.2536 15.1411 23.2255 15.0083 23.2244C14.8755 23.2232 14.7438 23.249 14.6209 23.3002C14.498 23.3513 14.3864 23.427 14.2925 23.5226C14.1986 23.6182 14.1243 23.7318 14.074 23.857C14.0238 23.9821 13.9985 24.1162 13.9996 24.2514C14.0008 24.3866 14.0284 24.5202 14.0808 24.6444C14.1332 24.7687 14.2094 24.881 14.3049 24.9749L21.3051 32.1025C21.4926 32.2934 21.7469 32.4006 22.0121 32.4006C22.2772 32.4006 22.5316 32.2934 22.7191 32.1025Z" fill="white"/>
</svg>
