<svg width="16" height="16" viewBox="0 0 16 16" fill="none" xmlns="http://www.w3.org/2000/svg">
<path d="M16 0.615384L16 15.3846C16 15.7243 15.7243 16 15.3846 16C15.0449 16 14.7692 15.7243 14.7692 15.3846L14.7692 2.10123L1.05046 15.8197C0.810155 16.06 0.420616 16.06 0.180308 15.8197C0.0600004 15.6994 9.33661e-07 15.5422 9.26775e-07 15.3846C9.19889e-07 15.2271 0.0600004 15.0695 0.180308 14.9495L13.8991 1.23077L0.615384 1.23077C0.275692 1.23077 2.9604e-07 0.955077 2.81191e-07 0.615385C2.66343e-07 0.275693 0.275692 6.87331e-07 0.615384 6.72483e-07L15.3846 2.68993e-08C15.7243 1.20509e-08 16 0.275692 16 0.615384Z" fill="black"/>
</svg>
