<svg width="14" height="10" viewBox="0 0 14 10" fill="none" xmlns="http://www.w3.org/2000/svg">
<path d="M13.8137 4.55045L9.35909 0.175445C9.23907 0.0615964 9.07832 -0.00140039 8.91147 2.36265e-05C8.74461 0.00144764 8.585 0.0671784 8.46702 0.183058C8.34903 0.298939 8.2821 0.455696 8.28065 0.619569C8.2792 0.783442 8.34334 0.941319 8.45926 1.05919L11.8276 4.36732H0.63637C0.467594 4.36732 0.305731 4.43317 0.186388 4.55038C0.0670459 4.66759 0 4.82656 0 4.99232C0 5.15808 0.0670459 5.31705 0.186388 5.43426C0.305731 5.55147 0.467594 5.61732 0.63637 5.61732H11.8276L8.45926 8.92544C8.39848 8.9831 8.35 9.05206 8.31665 9.12832C8.2833 9.20457 8.26575 9.28658 8.26501 9.36957C8.26428 9.45256 8.28038 9.53486 8.31238 9.61167C8.34437 9.68848 8.39163 9.75826 8.45138 9.81694C8.51113 9.87562 8.58218 9.92203 8.66039 9.95346C8.73859 9.98488 8.82239 10.0007 8.90689 9.99998C8.99138 9.99926 9.07489 9.98201 9.15253 9.94926C9.23017 9.9165 9.30039 9.86889 9.35909 9.8092L13.8137 5.43419C13.933 5.31699 14 5.15805 14 4.99232C14 4.82659 13.933 4.66765 13.8137 4.55045Z" fill="black"/>
</svg>
