<svg width="28" height="38" viewBox="0 0 28 38" fill="none" xmlns="http://www.w3.org/2000/svg">
<path d="M13.9167 23.8371C17 18.9201 20.1667 14.0032 23.25 9.08626C23.8333 9.08626 24.3333 9.08626 25 9.08626C24.4167 9.94888 23.9167 10.8115 23.3333 11.6741C20.5 16.1597 17.6667 20.5591 14.9167 25.0447C14.75 25.3035 14.75 25.5623 14.75 25.8211C14.75 29.0128 14.75 32.2045 14.75 35.3099C14.75 35.4824 14.75 35.7412 14.75 36C14.25 36 13.8333 36 13.25 36C13.25 35.8275 13.25 35.5687 13.25 35.3962C13.25 32.2045 13.25 29.099 13.25 25.9073C13.25 25.476 13.0833 25.0447 12.9167 24.6997C9.66666 19.6102 6.41667 14.4345 3.16666 9.34505C3.08333 9.25879 3.08333 9.17252 3 9C3.58333 9 4.08333 9 4.74999 9C7.66666 14.0032 10.75 18.9201 13.9167 23.8371Z" fill="black" stroke="black" stroke-width="2.60526"/>
<circle cx="14" cy="4" r="4" fill="black"/>
</svg>
